<svg version="1.1" viewBox="0.0 0.0 600.0 371.0" fill="none" stroke="none" stroke-linecap="square" stroke-miterlimit="10" width="600" height="371" xmlns:xlink="http://www.w3.org/1999/xlink" xmlns="http://www.w3.org/2000/svg"><path fill="#ffffff" fill-opacity="0.0" d="M0 0L600.0 0L600.0 371.0L0 371.0L0 0Z" fill-rule="nonzero"/><path stroke="#333333" stroke-width="1.0" stroke-linecap="butt" d="M112.5 305.5L581.5 305.5" fill-rule="nonzero"/><path fill="#eeeeee" d="M92.5 325.5L112.5 306.5L581.5 306.5L561.5 325.5Z" fill-rule="nonzero"/><path stroke="#cccccc" stroke-width="1.0" stroke-linecap="butt" d="M112.5 212.5L581.5 212.5" fill-rule="nonzero"/><path stroke="#cccccc" stroke-width="1.0" stroke-linecap="butt" d="M112.5 119.5L581.5 119.5" fill-rule="nonzero"/><path stroke="#cccccc" stroke-width="1.0" stroke-linecap="butt" d="M112.5 26.5L581.5 26.5" fill-rule="nonzero"/><path stroke="#000000" stroke-width="1.0" stroke-linecap="butt" d="M581.5 325.5L92.5 325.5" fill-rule="nonzero"/><clipPath id="id_0"><path d="M92.55 26.05L581.45 26.05L581.45 325.45L92.55 325.45L92.55 26.05Z" clip-rule="nonzero"/></clipPath><path fill="#212228" clip-path="url(#id_0)" d="M192.0 109.0L192.0 305.0L177.0 320.0L177.0 124.0Z" fill-rule="nonzero"/><path fill="#5c5d64" clip-path="url(#id_0)" d="M177.0 124.0L118.0 124.0L133.0 109.0L192.0 109.0Z" fill-rule="nonzero"/><path stroke="#000000" stroke-width="2.0" stroke-linecap="butt" stroke-opacity="0.0" clip-path="url(#id_0)" d="M177.0 320.0L118.0 320.0L118.0 124.0L177.0 124.0Z" fill-rule="nonzero"/><path fill="#33343d" clip-path="url(#id_0)" d="M177.0 320.0L118.0 320.0L118.0 124.0L177.0 124.0Z" fill-rule="nonzero"/><path fill="#151515" clip-path="url(#id_0)" d="M283.0 50.0L283.0 305.0L268.0 320.0L268.0 65.0Z" fill-rule="nonzero"/><path fill="#4d4d4d" clip-path="url(#id_0)" d="M268.0 65.0L209.0 65.0L224.0 50.0L283.0 50.0Z" fill-rule="nonzero"/><path stroke="#000000" stroke-width="2.0" stroke-linecap="butt" stroke-opacity="0.0" clip-path="url(#id_0)" d="M268.0 320.0L209.0 320.0L209.0 65.0L268.0 65.0Z" fill-rule="nonzero"/><path fill="#212121" clip-path="url(#id_0)" d="M268.0 320.0L209.0 320.0L209.0 65.0L268.0 65.0Z" fill-rule="nonzero"/><path fill="#5f9d00" clip-path="url(#id_0)" d="M375.0 147.0L375.0 305.0L360.0 320.0L360.0 162.0Z" fill-rule="nonzero"/><path fill="#a8f533" clip-path="url(#id_0)" d="M360.0 162.0L301.0 162.0L316.0 147.0L375.0 147.0Z" fill-rule="nonzero"/><path stroke="#000000" stroke-width="2.0" stroke-linecap="butt" stroke-opacity="0.0" clip-path="url(#id_0)" d="M360.0 320.0L301.0 320.0L301.0 162.0L360.0 162.0Z" fill-rule="nonzero"/><path fill="#92f200" clip-path="url(#id_0)" d="M360.0 320.0L301.0 320.0L301.0 162.0L360.0 162.0Z" fill-rule="nonzero"/><path fill="#9a5220" clip-path="url(#id_0)" d="M466.0 173.0L466.0 305.0L451.0 320.0L451.0 188.0Z" fill-rule="nonzero"/><path fill="#f1985a" clip-path="url(#id_0)" d="M451.0 188.0L392.0 188.0L407.0 173.0L466.0 173.0Z" fill-rule="nonzero"/><path stroke="#000000" stroke-width="2.0" stroke-linecap="butt" stroke-opacity="0.0" clip-path="url(#id_0)" d="M451.0 320.0L392.0 320.0L392.0 188.0L451.0 188.0Z" fill-rule="nonzero"/><path fill="#ed7e31" clip-path="url(#id_0)" d="M451.0 320.0L392.0 320.0L392.0 188.0L451.0 188.0Z" fill-rule="nonzero"/><path fill="#1667a6" clip-path="url(#id_0)" d="M557.0 253.0L557.0 305.0L542.0 320.0L542.0 268.0Z" fill-rule="nonzero"/><path fill="#4eb1ff" clip-path="url(#id_0)" d="M542.0 268.0L483.0 268.0L498.0 253.0L557.0 253.0Z" fill-rule="nonzero"/><path stroke="#000000" stroke-width="2.0" stroke-linecap="butt" stroke-opacity="0.0" clip-path="url(#id_0)" d="M542.0 320.0L483.0 320.0L483.0 268.0L542.0 268.0Z" fill-rule="nonzero"/><path fill="#229eff" clip-path="url(#id_0)" d="M542.0 320.0L483.0 320.0L483.0 268.0L542.0 268.0Z" fill-rule="nonzero"/><path stroke="#000000" stroke-width="1.0" stroke-linecap="butt" d="M146.5 331.5L146.5 319.5" fill-rule="nonzero"/><path stroke="#000000" stroke-width="1.0" stroke-linecap="butt" d="M238.5 331.5L238.5 319.5" fill-rule="nonzero"/><path stroke="#000000" stroke-width="1.0" stroke-linecap="butt" d="M329.5 331.5L329.5 319.5" fill-rule="nonzero"/><path stroke="#000000" stroke-width="1.0" stroke-linecap="butt" d="M420.5 331.5L420.5 319.5" fill-rule="nonzero"/><path stroke="#000000" stroke-width="1.0" stroke-linecap="butt" d="M512.5 331.5L512.5 319.5" fill-rule="nonzero"/><path stroke="#33343d" stroke-width="3.0" stroke-linejoin="round" stroke-linecap="round" d="M135.09375 137.78534L136.0625 137.78534L136.0625 139.16034L135.09375 139.16034L135.09375 141.00409L133.39062 141.00409L133.39062 139.16034L129.90625 139.16034L129.82812 138.09784L133.375 132.47284L135.09375 132.47284L135.09375 137.78534ZM131.51562 137.78534L133.39062 137.78534L133.39062 134.78534L133.28125 134.97284L131.51562 137.78534ZM142.92188 141.00409L137.07812 141.00409L137.07812 139.84784L139.84375 136.89471Q140.40625 136.28534 140.67188 135.81659Q140.95312 135.34784 140.95312 134.94159Q140.95312 134.36346 140.65625 134.05096Q140.375 133.72284 139.84375 133.72284Q139.26562 133.72284 138.9375 134.11346Q138.60938 134.50409 138.60938 135.16034L136.90625 135.16034Q136.90625 134.37909 137.28125 133.73846Q137.65625 133.08221 138.32812 132.72284Q139.01562 132.34784 139.875 132.34784Q141.1875 132.34784 141.92188 132.98846Q142.65625 133.61346 142.65625 134.76971Q142.65625 135.41034 142.32812 136.06659Q142.0 136.72284 141.20312 137.59784L139.26562 139.64471L142.92188 139.64471L142.92188 141.00409ZM148.1875 141.00409L146.5 141.00409L146.5 134.47284L144.48438 135.09784L144.48438 133.72284L148.01562 132.45721L148.1875 132.45721L148.1875 141.00409ZM156.09375 137.78534L157.0625 137.78534L157.0625 139.16034L156.09375 139.16034L156.09375 141.00409L154.39062 141.00409L154.39062 139.16034L150.90625 139.16034L150.82812 138.09784L154.375 132.47284L156.09375 132.47284L156.09375 137.78534ZM152.51562 137.78534L154.39062 137.78534L154.39062 134.78534L154.28125 134.97284L152.51562 137.78534ZM159.79688 135.98846L160.70312 135.98846Q161.34375 135.98846 161.65625 135.67596Q161.96875 135.34784 161.96875 134.81659Q161.96875 134.30096 161.65625 134.01971Q161.35938 133.72284 160.8125 133.72284Q160.32812 133.72284 160.0 133.98846Q159.67188 134.25409 159.67188 134.67596L157.98438 134.67596Q157.98438 134.01971 158.34375 133.48846Q158.70312 132.95721 159.34375 132.66034Q160.0 132.34784 160.78125 132.34784Q162.125 132.34784 162.89062 133.00409Q163.67188 133.64471 163.67188 134.78534Q163.67188 135.37909 163.3125 135.87909Q162.95312 136.36346 162.375 136.61346Q163.09375 136.87909 163.4375 137.39471Q163.79688 137.91034 163.79688 138.61346Q163.79688 139.75409 162.96875 140.44159Q162.14062 141.12909 160.78125 141.12909Q159.5 141.12909 158.6875 140.45721Q157.875 139.76971 157.875 138.66034L159.5625 138.66034Q159.5625 139.14471 159.92188 139.45721Q160.29688 139.75409 160.8125 139.75409Q161.42188 139.75409 161.76562 139.44159Q162.10938 139.11346 162.10938 138.58221Q162.10938 137.31659 160.70312 137.31659L159.79688 137.31659L159.79688 135.98846Z" fill-rule="nonzero"/><path fill="#ffffff" d="M135.09375 137.78534L136.0625 137.78534L136.0625 139.16034L135.09375 139.16034L135.09375 141.00409L133.39062 141.00409L133.39062 139.16034L129.90625 139.16034L129.82812 138.09784L133.375 132.47284L135.09375 132.47284L135.09375 137.78534ZM131.51562 137.78534L133.39062 137.78534L133.39062 134.78534L133.28125 134.97284L131.51562 137.78534ZM142.92188 141.00409L137.07812 141.00409L137.07812 139.84784L139.84375 136.89471Q140.40625 136.28534 140.67188 135.81659Q140.95312 135.34784 140.95312 134.94159Q140.95312 134.36346 140.65625 134.05096Q140.375 133.72284 139.84375 133.72284Q139.26562 133.72284 138.9375 134.11346Q138.60938 134.50409 138.60938 135.16034L136.90625 135.16034Q136.90625 134.37909 137.28125 133.73846Q137.65625 133.08221 138.32812 132.72284Q139.01562 132.34784 139.875 132.34784Q141.1875 132.34784 141.92188 132.98846Q142.65625 133.61346 142.65625 134.76971Q142.65625 135.41034 142.32812 136.06659Q142.0 136.72284 141.20312 137.59784L139.26562 139.64471L142.92188 139.64471L142.92188 141.00409ZM148.1875 141.00409L146.5 141.00409L146.5 134.47284L144.48438 135.09784L144.48438 133.72284L148.01562 132.45721L148.1875 132.45721L148.1875 141.00409ZM156.09375 137.78534L157.0625 137.78534L157.0625 139.16034L156.09375 139.16034L156.09375 141.00409L154.39062 141.00409L154.39062 139.16034L150.90625 139.16034L150.82812 138.09784L154.375 132.47284L156.09375 132.47284L156.09375 137.78534ZM152.51562 137.78534L154.39062 137.78534L154.39062 134.78534L154.28125 134.97284L152.51562 137.78534ZM159.79688 135.98846L160.70312 135.98846Q161.34375 135.98846 161.65625 135.67596Q161.96875 135.34784 161.96875 134.81659Q161.96875 134.30096 161.65625 134.01971Q161.35938 133.72284 160.8125 133.72284Q160.32812 133.72284 160.0 133.98846Q159.67188 134.25409 159.67188 134.67596L157.98438 134.67596Q157.98438 134.01971 158.34375 133.48846Q158.70312 132.95721 159.34375 132.66034Q160.0 132.34784 160.78125 132.34784Q162.125 132.34784 162.89062 133.00409Q163.67188 133.64471 163.67188 134.78534Q163.67188 135.37909 163.3125 135.87909Q162.95312 136.36346 162.375 136.61346Q163.09375 136.87909 163.4375 137.39471Q163.79688 137.91034 163.79688 138.61346Q163.79688 139.75409 162.96875 140.44159Q162.14062 141.12909 160.78125 141.12909Q159.5 141.12909 158.6875 140.45721Q157.875 139.76971 157.875 138.66034L159.5625 138.66034Q159.5625 139.14471 159.92188 139.45721Q160.29688 139.75409 160.8125 139.75409Q161.42188 139.75409 161.76562 139.44159Q162.10938 139.11346 162.10938 138.58221Q162.10938 137.31659 160.70312 137.31659L159.79688 137.31659L159.79688 135.98846Z" fill-rule="nonzero"/><path stroke="#212121" stroke-width="3.0" stroke-linejoin="round" stroke-linecap="round" d="M221.32812 77.14442L221.82812 72.81629L226.60938 72.81629L226.60938 74.22254L223.21875 74.22254L223.0 76.06629Q223.60938 75.73817 224.28125 75.73817Q225.5 75.73817 226.1875 76.50379Q226.89062 77.25379 226.89062 78.61317Q226.89062 79.44129 226.53125 80.09754Q226.1875 80.73817 225.53125 81.11317Q224.89062 81.47254 224.0 81.47254Q223.23438 81.47254 222.5625 81.16004Q221.90625 80.83192 221.51562 80.26942Q221.14062 79.70692 221.10938 78.97254L222.79688 78.97254Q222.84375 79.50379 223.15625 79.80067Q223.48438 80.09754 224.0 80.09754Q224.57812 80.09754 224.875 79.69129Q225.1875 79.26942 225.1875 78.51942Q225.1875 77.78504 224.82812 77.41004Q224.48438 77.01942 223.82812 77.01942Q223.21875 77.01942 222.84375 77.33192L222.6875 77.48817L221.32812 77.14442ZM233.09375 78.12879L234.0625 78.12879L234.0625 79.50379L233.09375 79.50379L233.09375 81.34754L231.39062 81.34754L231.39062 79.50379L227.90625 79.50379L227.82812 78.44129L231.375 72.81629L233.09375 72.81629L233.09375 78.12879ZM229.51562 78.12879L231.39062 78.12879L231.39062 75.12879L231.28125 75.31629L229.51562 78.12879ZM239.04688 77.94129Q238.375 78.58192 237.5 78.58192Q236.35938 78.58192 235.67188 77.81629Q235.0 77.03504 235.0 75.72254Q235.0 74.87879 235.35938 74.17567Q235.73438 73.47254 236.39062 73.08192Q237.04688 72.69129 237.875 72.69129Q238.71875 72.69129 239.375 73.11317Q240.03125 73.53504 240.39062 74.33192Q240.75 75.12879 240.76562 76.14442L240.76562 76.76942Q240.76562 78.91004 239.70312 80.12879Q238.64062 81.34754 236.6875 81.42567L236.28125 81.42567L236.28125 80.01942L236.65625 80.00379Q238.85938 79.91004 239.04688 77.94129ZM237.90625 77.28504Q238.32812 77.28504 238.60938 77.08192Q238.90625 76.86317 239.0625 76.56629L239.0625 75.87879Q239.0625 75.01942 238.73438 74.55067Q238.40625 74.06629 237.85938 74.06629Q237.34375 74.06629 237.01562 74.53504Q236.6875 74.98817 236.6875 75.69129Q236.6875 76.39442 237.0 76.84754Q237.32812 77.28504 237.90625 77.28504ZM242.32812 77.14442L242.82812 72.81629L247.60938 72.81629L247.60938 74.22254L244.21875 74.22254L244.0 76.06629Q244.60938 75.73817 245.28125 75.73817Q246.5 75.73817 247.1875 76.50379Q247.89062 77.25379 247.89062 78.61317Q247.89062 79.44129 247.53125 80.09754Q247.1875 80.73817 246.53125 81.11317Q245.89062 81.47254 245.0 81.47254Q244.23438 81.47254 243.5625 81.16004Q242.90625 80.83192 242.51562 80.26942Q242.14062 79.70692 242.10938 78.97254L243.79688 78.97254Q243.84375 79.50379 244.15625 79.80067Q244.48438 80.09754 245.0 80.09754Q245.57812 80.09754 245.875 79.69129Q246.1875 79.26942 246.1875 78.51942Q246.1875 77.78504 245.82812 77.41004Q245.48438 77.01942 244.82812 77.01942Q244.21875 77.01942 243.84375 77.33192L243.6875 77.48817L242.32812 77.14442ZM254.09375 78.12879L255.0625 78.12879L255.0625 79.50379L254.09375 79.50379L254.09375 81.34754L252.39062 81.34754L252.39062 79.50379L248.90625 79.50379L248.82812 78.44129L252.375 72.81629L254.09375 72.81629L254.09375 78.12879ZM250.51562 78.12879L252.39062 78.12879L252.39062 75.12879L252.28125 75.31629L250.51562 78.12879Z" fill-rule="nonzero"/><path fill="#ffffff" d="M221.32812 77.14442L221.82812 72.81629L226.60938 72.81629L226.60938 74.22254L223.21875 74.22254L223.0 76.06629Q223.60938 75.73817 224.28125 75.73817Q225.5 75.73817 226.1875 76.50379Q226.89062 77.25379 226.89062 78.61317Q226.89062 79.44129 226.53125 80.09754Q226.1875 80.73817 225.53125 81.11317Q224.89062 81.47254 224.0 81.47254Q223.23438 81.47254 222.5625 81.16004Q221.90625 80.83192 221.51562 80.26942Q221.14062 79.70692 221.10938 78.97254L222.79688 78.97254Q222.84375 79.50379 223.15625 79.80067Q223.48438 80.09754 224.0 80.09754Q224.57812 80.09754 224.875 79.69129Q225.1875 79.26942 225.1875 78.51942Q225.1875 77.78504 224.82812 77.41004Q224.48438 77.01942 223.82812 77.01942Q223.21875 77.01942 222.84375 77.33192L222.6875 77.48817L221.32812 77.14442ZM233.09375 78.12879L234.0625 78.12879L234.0625 79.50379L233.09375 79.50379L233.09375 81.34754L231.39062 81.34754L231.39062 79.50379L227.90625 79.50379L227.82812 78.44129L231.375 72.81629L233.09375 72.81629L233.09375 78.12879ZM229.51562 78.12879L231.39062 78.12879L231.39062 75.12879L231.28125 75.31629L229.51562 78.12879ZM239.04688 77.94129Q238.375 78.58192 237.5 78.58192Q236.35938 78.58192 235.67188 77.81629Q235.0 77.03504 235.0 75.72254Q235.0 74.87879 235.35938 74.17567Q235.73438 73.47254 236.39062 73.08192Q237.04688 72.69129 237.875 72.69129Q238.71875 72.69129 239.375 73.11317Q240.03125 73.53504 240.39062 74.33192Q240.75 75.12879 240.76562 76.14442L240.76562 76.76942Q240.76562 78.91004 239.70312 80.12879Q238.64062 81.34754 236.6875 81.42567L236.28125 81.42567L236.28125 80.01942L236.65625 80.00379Q238.85938 79.91004 239.04688 77.94129ZM237.90625 77.28504Q238.32812 77.28504 238.60938 77.08192Q238.90625 76.86317 239.0625 76.56629L239.0625 75.87879Q239.0625 75.01942 238.73438 74.55067Q238.40625 74.06629 237.85938 74.06629Q237.34375 74.06629 237.01562 74.53504Q236.6875 74.98817 236.6875 75.69129Q236.6875 76.39442 237.0 76.84754Q237.32812 77.28504 237.90625 77.28504ZM242.32812 77.14442L242.82812 72.81629L247.60938 72.81629L247.60938 74.22254L244.21875 74.22254L244.0 76.06629Q244.60938 75.73817 245.28125 75.73817Q246.5 75.73817 247.1875 76.50379Q247.89062 77.25379 247.89062 78.61317Q247.89062 79.44129 247.53125 80.09754Q247.1875 80.73817 246.53125 81.11317Q245.89062 81.47254 245.0 81.47254Q244.23438 81.47254 243.5625 81.16004Q242.90625 80.83192 242.51562 80.26942Q242.14062 79.70692 242.10938 78.97254L243.79688 78.97254Q243.84375 79.50379 244.15625 79.80067Q244.48438 80.09754 245.0 80.09754Q245.57812 80.09754 245.875 79.69129Q246.1875 79.26942 246.1875 78.51942Q246.1875 77.78504 245.82812 77.41004Q245.48438 77.01942 244.82812 77.01942Q244.21875 77.01942 243.84375 77.33192L243.6875 77.48817L242.32812 77.14442ZM254.09375 78.12879L255.0625 78.12879L255.0625 79.50379L254.09375 79.50379L254.09375 81.34754L252.39062 81.34754L252.39062 79.50379L248.90625 79.50379L248.82812 78.44129L252.375 72.81629L254.09375 72.81629L254.09375 78.12879ZM250.51562 78.12879L252.39062 78.12879L252.39062 75.12879L252.28125 75.31629L250.51562 78.12879Z" fill-rule="nonzero"/><path stroke="#92f200" stroke-width="3.0" stroke-linejoin="round" stroke-linecap="round" d="M314.79688 173.768L315.70312 173.768Q316.34375 173.768 316.65625 173.4555Q316.96875 173.12738 316.96875 172.59613Q316.96875 172.0805 316.65625 171.79926Q316.35938 171.50238 315.8125 171.50238Q315.32812 171.50238 315.0 171.768Q314.67188 172.03363 314.67188 172.4555L312.98438 172.4555Q312.98438 171.79926 313.34375 171.268Q313.70312 170.73676 314.34375 170.43988Q315.0 170.12738 315.78125 170.12738Q317.125 170.12738 317.89062 170.78363Q318.67188 171.42426 318.67188 172.56488Q318.67188 173.15863 318.3125 173.65863Q317.95312 174.143 317.375 174.393Q318.09375 174.65863 318.4375 175.17426Q318.79688 175.68988 318.79688 176.393Q318.79688 177.53363 317.96875 178.22113Q317.14062 178.90863 315.78125 178.90863Q314.5 178.90863 313.6875 178.23676Q312.875 177.54926 312.875 176.43988L314.5625 176.43988Q314.5625 176.92426 314.92188 177.23676Q315.29688 177.53363 315.8125 177.53363Q316.42188 177.53363 316.76562 177.22113Q317.10938 176.893 317.10938 176.36176Q317.10938 175.09613 315.70312 175.09613L314.79688 175.09613L314.79688 173.768ZM325.09375 175.56488L326.0625 175.56488L326.0625 176.93988L325.09375 176.93988L325.09375 178.78363L323.39062 178.78363L323.39062 176.93988L319.90625 176.93988L319.82812 175.87738L323.375 170.25238L325.09375 170.25238L325.09375 175.56488ZM321.51562 175.56488L323.39062 175.56488L323.39062 172.56488L323.28125 172.75238L321.51562 175.56488ZM332.82812 175.25238Q332.82812 177.018 332.09375 177.97113Q331.35938 178.90863 329.95312 178.90863Q328.54688 178.90863 327.8125 177.98676Q327.07812 177.06488 327.0625 175.34613L327.0625 173.768Q327.0625 171.98676 327.79688 171.06488Q328.54688 170.12738 329.9375 170.12738Q331.32812 170.12738 332.0625 171.04926Q332.8125 171.97113 332.82812 173.68988L332.82812 175.25238ZM331.125 173.53363Q331.125 172.47113 330.82812 171.98676Q330.54688 171.50238 329.9375 171.50238Q329.34375 171.50238 329.04688 171.97113Q328.76562 172.42426 328.75 173.40863L328.75 175.47113Q328.75 176.518 329.03125 177.03363Q329.3125 177.53363 329.95312 177.53363Q330.5625 177.53363 330.84375 177.04926Q331.125 176.56488 331.125 175.56488L331.125 173.53363ZM335.79688 173.768L336.70312 173.768Q337.34375 173.768 337.65625 173.4555Q337.96875 173.12738 337.96875 172.59613Q337.96875 172.0805 337.65625 171.79926Q337.35938 171.50238 336.8125 171.50238Q336.32812 171.50238 336.0 171.768Q335.67188 172.03363 335.67188 172.4555L333.98438 172.4555Q333.98438 171.79926 334.34375 171.268Q334.70312 170.73676 335.34375 170.43988Q336.0 170.12738 336.78125 170.12738Q338.125 170.12738 338.89062 170.78363Q339.67188 171.42426 339.67188 172.56488Q339.67188 173.15863 339.3125 173.65863Q338.95312 174.143 338.375 174.393Q339.09375 174.65863 339.4375 175.17426Q339.79688 175.68988 339.79688 176.393Q339.79688 177.53363 338.96875 178.22113Q338.14062 178.90863 336.78125 178.90863Q335.5 178.90863 334.6875 178.23676Q333.875 177.54926 333.875 176.43988L335.5625 176.43988Q335.5625 176.92426 335.92188 177.23676Q336.29688 177.53363 336.8125 177.53363Q337.42188 177.53363 337.76562 177.22113Q338.10938 176.893 338.10938 176.36176Q338.10938 175.09613 336.70312 175.09613L335.79688 175.09613L335.79688 173.768ZM346.82812 175.25238Q346.82812 177.018 346.09375 177.97113Q345.35938 178.90863 343.95312 178.90863Q342.54688 178.90863 341.8125 177.98676Q341.07812 177.06488 341.0625 175.34613L341.0625 173.768Q341.0625 171.98676 341.79688 171.06488Q342.54688 170.12738 343.9375 170.12738Q345.32812 170.12738 346.0625 171.04926Q346.8125 171.97113 346.82812 173.68988L346.82812 175.25238ZM345.125 173.53363Q345.125 172.47113 344.82812 171.98676Q344.54688 171.50238 343.9375 171.50238Q343.34375 171.50238 343.04688 171.97113Q342.76562 172.42426 342.75 173.40863L342.75 175.47113Q342.75 176.518 343.03125 177.03363Q343.3125 177.53363 343.95312 177.53363Q344.5625 177.53363 344.84375 177.04926Q345.125 176.56488 345.125 175.56488L345.125 173.53363Z" fill-rule="nonzero"/><path fill="#000000" d="M314.79688 173.768L315.70312 173.768Q316.34375 173.768 316.65625 173.4555Q316.96875 173.12738 316.96875 172.59613Q316.96875 172.0805 316.65625 171.79926Q316.35938 171.50238 315.8125 171.50238Q315.32812 171.50238 315.0 171.768Q314.67188 172.03363 314.67188 172.4555L312.98438 172.4555Q312.98438 171.79926 313.34375 171.268Q313.70312 170.73676 314.34375 170.43988Q315.0 170.12738 315.78125 170.12738Q317.125 170.12738 317.89062 170.78363Q318.67188 171.42426 318.67188 172.56488Q318.67188 173.15863 318.3125 173.65863Q317.95312 174.143 317.375 174.393Q318.09375 174.65863 318.4375 175.17426Q318.79688 175.68988 318.79688 176.393Q318.79688 177.53363 317.96875 178.22113Q317.14062 178.90863 315.78125 178.90863Q314.5 178.90863 313.6875 178.23676Q312.875 177.54926 312.875 176.43988L314.5625 176.43988Q314.5625 176.92426 314.92188 177.23676Q315.29688 177.53363 315.8125 177.53363Q316.42188 177.53363 316.76562 177.22113Q317.10938 176.893 317.10938 176.36176Q317.10938 175.09613 315.70312 175.09613L314.79688 175.09613L314.79688 173.768ZM325.09375 175.56488L326.0625 175.56488L326.0625 176.93988L325.09375 176.93988L325.09375 178.78363L323.39062 178.78363L323.39062 176.93988L319.90625 176.93988L319.82812 175.87738L323.375 170.25238L325.09375 170.25238L325.09375 175.56488ZM321.51562 175.56488L323.39062 175.56488L323.39062 172.56488L323.28125 172.75238L321.51562 175.56488ZM332.82812 175.25238Q332.82812 177.018 332.09375 177.97113Q331.35938 178.90863 329.95312 178.90863Q328.54688 178.90863 327.8125 177.98676Q327.07812 177.06488 327.0625 175.34613L327.0625 173.768Q327.0625 171.98676 327.79688 171.06488Q328.54688 170.12738 329.9375 170.12738Q331.32812 170.12738 332.0625 171.04926Q332.8125 171.97113 332.82812 173.68988L332.82812 175.25238ZM331.125 173.53363Q331.125 172.47113 330.82812 171.98676Q330.54688 171.50238 329.9375 171.50238Q329.34375 171.50238 329.04688 171.97113Q328.76562 172.42426 328.75 173.40863L328.75 175.47113Q328.75 176.518 329.03125 177.03363Q329.3125 177.53363 329.95312 177.53363Q330.5625 177.53363 330.84375 177.04926Q331.125 176.56488 331.125 175.56488L331.125 173.53363ZM335.79688 173.768L336.70312 173.768Q337.34375 173.768 337.65625 173.4555Q337.96875 173.12738 337.96875 172.59613Q337.96875 172.0805 337.65625 171.79926Q337.35938 171.50238 336.8125 171.50238Q336.32812 171.50238 336.0 171.768Q335.67188 172.03363 335.67188 172.4555L333.98438 172.4555Q333.98438 171.79926 334.34375 171.268Q334.70312 170.73676 335.34375 170.43988Q336.0 170.12738 336.78125 170.12738Q338.125 170.12738 338.89062 170.78363Q339.67188 171.42426 339.67188 172.56488Q339.67188 173.15863 339.3125 173.65863Q338.95312 174.143 338.375 174.393Q339.09375 174.65863 339.4375 175.17426Q339.79688 175.68988 339.79688 176.393Q339.79688 177.53363 338.96875 178.22113Q338.14062 178.90863 336.78125 178.90863Q335.5 178.90863 334.6875 178.23676Q333.875 177.54926 333.875 176.43988L335.5625 176.43988Q335.5625 176.92426 335.92188 177.23676Q336.29688 177.53363 336.8125 177.53363Q337.42188 177.53363 337.76562 177.22113Q338.10938 176.893 338.10938 176.36176Q338.10938 175.09613 336.70312 175.09613L335.79688 175.09613L335.79688 173.768ZM346.82812 175.25238Q346.82812 177.018 346.09375 177.97113Q345.35938 178.90863 343.95312 178.90863Q342.54688 178.90863 341.8125 177.98676Q341.07812 177.06488 341.0625 175.34613L341.0625 173.768Q341.0625 171.98676 341.79688 171.06488Q342.54688 170.12738 343.9375 170.12738Q345.32812 170.12738 346.0625 171.04926Q346.8125 171.97113 346.82812 173.68988L346.82812 175.25238ZM345.125 173.53363Q345.125 172.47113 344.82812 171.98676Q344.54688 171.50238 343.9375 171.50238Q343.34375 171.50238 343.04688 171.97113Q342.76562 172.42426 342.75 173.40863L342.75 175.47113Q342.75 176.518 343.03125 177.03363Q343.3125 177.53363 343.95312 177.53363Q344.5625 177.53363 344.84375 177.04926Q345.125 176.56488 345.125 175.56488L345.125 173.53363Z" fill-rule="nonzero"/><path stroke="#ed7e31" stroke-width="3.0" stroke-linejoin="round" stroke-linecap="round" d="M409.92188 204.45584L404.07812 204.45584L404.07812 203.29959L406.84375 200.34647Q407.40625 199.73709 407.67188 199.26834Q407.95312 198.79959 407.95312 198.39334Q407.95312 197.81522 407.65625 197.50272Q407.375 197.17459 406.84375 197.17459Q406.26562 197.17459 405.9375 197.56522Q405.60938 197.95584 405.60938 198.61209L403.90625 198.61209Q403.90625 197.83084 404.28125 197.19022Q404.65625 196.53397 405.32812 196.17459Q406.01562 195.79959 406.875 195.79959Q408.1875 195.79959 408.92188 196.44022Q409.65625 197.06522 409.65625 198.22147Q409.65625 198.86209 409.32812 199.51834Q409.0 200.17459 408.20312 201.04959L406.26562 203.09647L409.92188 203.09647L409.92188 204.45584ZM416.64062 198.19022Q416.64062 198.81522 416.32812 199.29959Q416.01562 199.76834 415.46875 200.06522Q416.09375 200.36209 416.45312 200.89334Q416.82812 201.40897 416.82812 202.11209Q416.82812 203.25272 416.04688 203.92459Q415.28125 204.58084 413.9375 204.58084Q412.60938 204.58084 411.82812 203.92459Q411.0625 203.25272 411.0625 202.11209Q411.0625 201.40897 411.42188 200.87772Q411.78125 200.34647 412.40625 200.06522Q411.85938 199.76834 411.54688 199.29959Q411.23438 198.81522 411.23438 198.19022Q411.23438 197.09647 411.95312 196.45584Q412.6875 195.79959 413.9375 195.79959Q415.1875 195.79959 415.90625 196.45584Q416.64062 197.09647 416.64062 198.19022ZM415.125 201.98709Q415.125 201.44022 414.79688 201.11209Q414.48438 200.76834 413.9375 200.76834Q413.39062 200.76834 413.0625 201.09647Q412.75 201.42459 412.75 201.98709Q412.75 202.53397 413.0625 202.87772Q413.39062 203.20584 413.95312 203.20584Q414.5 203.20584 414.8125 202.89334Q415.125 202.56522 415.125 201.98709ZM414.95312 198.26834Q414.95312 197.76834 414.6875 197.47147Q414.42188 197.17459 413.9375 197.17459Q413.46875 197.17459 413.20312 197.47147Q412.9375 197.75272 412.9375 198.26834Q412.9375 198.78397 413.20312 199.09647Q413.46875 199.40897 413.9375 199.40897Q414.42188 199.40897 414.6875 199.09647Q414.95312 198.78397 414.95312 198.26834ZM418.32812 200.25272L418.82812 195.92459L423.60938 195.92459L423.60938 197.33084L420.21875 197.33084L420.0 199.17459Q420.60938 198.84647 421.28125 198.84647Q422.5 198.84647 423.1875 199.61209Q423.89062 200.36209 423.89062 201.72147Q423.89062 202.54959 423.53125 203.20584Q423.1875 203.84647 422.53125 204.22147Q421.89062 204.58084 421.0 204.58084Q420.23438 204.58084 419.5625 204.26834Q418.90625 203.94022 418.51562 203.37772Q418.14062 202.81522 418.10938 202.08084L419.79688 202.08084Q419.84375 202.61209 420.15625 202.90897Q420.48438 203.20584 421.0 203.20584Q421.57812 203.20584 421.875 202.79959Q422.1875 202.37772 422.1875 201.62772Q422.1875 200.89334 421.82812 200.51834Q421.48438 200.12772 420.82812 200.12772Q420.21875 200.12772 419.84375 200.44022L419.6875 200.59647L418.32812 200.25272ZM429.1875 204.45584L427.5 204.45584L427.5 197.92459L425.48438 198.54959L425.48438 197.17459L429.01562 195.90897L429.1875 195.90897L429.1875 204.45584ZM437.875 196.87772L434.57812 204.45584L432.79688 204.45584L436.09375 197.29959L431.85938 197.29959L431.85938 195.92459L437.875 195.92459L437.875 196.87772Z" fill-rule="nonzero"/><path fill="#000000" d="M409.92188 204.45584L404.07812 204.45584L404.07812 203.29959L406.84375 200.34647Q407.40625 199.73709 407.67188 199.26834Q407.95312 198.79959 407.95312 198.39334Q407.95312 197.81522 407.65625 197.50272Q407.375 197.17459 406.84375 197.17459Q406.26562 197.17459 405.9375 197.56522Q405.60938 197.95584 405.60938 198.61209L403.90625 198.61209Q403.90625 197.83084 404.28125 197.19022Q404.65625 196.53397 405.32812 196.17459Q406.01562 195.79959 406.875 195.79959Q408.1875 195.79959 408.92188 196.44022Q409.65625 197.06522 409.65625 198.22147Q409.65625 198.86209 409.32812 199.51834Q409.0 200.17459 408.20312 201.04959L406.26562 203.09647L409.92188 203.09647L409.92188 204.45584ZM416.64062 198.19022Q416.64062 198.81522 416.32812 199.29959Q416.01562 199.76834 415.46875 200.06522Q416.09375 200.36209 416.45312 200.89334Q416.82812 201.40897 416.82812 202.11209Q416.82812 203.25272 416.04688 203.92459Q415.28125 204.58084 413.9375 204.58084Q412.60938 204.58084 411.82812 203.92459Q411.0625 203.25272 411.0625 202.11209Q411.0625 201.40897 411.42188 200.87772Q411.78125 200.34647 412.40625 200.06522Q411.85938 199.76834 411.54688 199.29959Q411.23438 198.81522 411.23438 198.19022Q411.23438 197.09647 411.95312 196.45584Q412.6875 195.79959 413.9375 195.79959Q415.1875 195.79959 415.90625 196.45584Q416.64062 197.09647 416.64062 198.19022ZM415.125 201.98709Q415.125 201.44022 414.79688 201.11209Q414.48438 200.76834 413.9375 200.76834Q413.39062 200.76834 413.0625 201.09647Q412.75 201.42459 412.75 201.98709Q412.75 202.53397 413.0625 202.87772Q413.39062 203.20584 413.95312 203.20584Q414.5 203.20584 414.8125 202.89334Q415.125 202.56522 415.125 201.98709ZM414.95312 198.26834Q414.95312 197.76834 414.6875 197.47147Q414.42188 197.17459 413.9375 197.17459Q413.46875 197.17459 413.20312 197.47147Q412.9375 197.75272 412.9375 198.26834Q412.9375 198.78397 413.20312 199.09647Q413.46875 199.40897 413.9375 199.40897Q414.42188 199.40897 414.6875 199.09647Q414.95312 198.78397 414.95312 198.26834ZM418.32812 200.25272L418.82812 195.92459L423.60938 195.92459L423.60938 197.33084L420.21875 197.33084L420.0 199.17459Q420.60938 198.84647 421.28125 198.84647Q422.5 198.84647 423.1875 199.61209Q423.89062 200.36209 423.89062 201.72147Q423.89062 202.54959 423.53125 203.20584Q423.1875 203.84647 422.53125 204.22147Q421.89062 204.58084 421.0 204.58084Q420.23438 204.58084 419.5625 204.26834Q418.90625 203.94022 418.51562 203.37772Q418.14062 202.81522 418.10938 202.08084L419.79688 202.08084Q419.84375 202.61209 420.15625 202.90897Q420.48438 203.20584 421.0 203.20584Q421.57812 203.20584 421.875 202.79959Q422.1875 202.37772 422.1875 201.62772Q422.1875 200.89334 421.82812 200.51834Q421.48438 200.12772 420.82812 200.12772Q420.21875 200.12772 419.84375 200.44022L419.6875 200.59647L418.32812 200.25272ZM429.1875 204.45584L427.5 204.45584L427.5 197.92459L425.48438 198.54959L425.48438 197.17459L429.01562 195.90897L429.1875 195.90897L429.1875 204.45584ZM437.875 196.87772L434.57812 204.45584L432.79688 204.45584L436.09375 197.29959L431.85938 197.29959L431.85938 195.92459L437.875 195.92459L437.875 196.87772Z" fill-rule="nonzero"/><path stroke="#229eff" stroke-width="3.0" stroke-linejoin="round" stroke-linecap="round" d="M499.1875 285.08603L497.5 285.08603L497.5 278.55478L495.48438 279.17978L495.48438 277.80478L499.01562 276.53915L499.1875 276.53915L499.1875 285.08603ZM506.1875 285.08603L504.5 285.08603L504.5 278.55478L502.48438 279.17978L502.48438 277.80478L506.01562 276.53915L506.1875 276.53915L506.1875 285.08603ZM514.9219 285.08603L509.07812 285.08603L509.07812 283.92978L511.84375 280.97665Q512.40625 280.36728 512.6719 279.89853Q512.9531 279.42978 512.9531 279.02353Q512.9531 278.4454 512.65625 278.1329Q512.375 277.80478 511.84375 277.80478Q511.26562 277.80478 510.9375 278.1954Q510.60938 278.58603 510.60938 279.24228L508.90625 279.24228Q508.90625 278.46103 509.28125 277.8204Q509.65625 277.16415 510.32812 276.80478Q511.01562 276.42978 511.875 276.42978Q513.1875 276.42978 513.9219 277.0704Q514.65625 277.6954 514.65625 278.85165Q514.65625 279.49228 514.3281 280.14853Q514.0 280.80478 513.2031 281.67978L511.26562 283.72665L514.9219 283.72665L514.9219 285.08603ZM521.8281 281.55478Q521.8281 283.3204 521.09375 284.27353Q520.3594 285.21103 518.9531 285.21103Q517.5469 285.21103 516.8125 284.28915Q516.0781 283.36728 516.0625 281.64853L516.0625 280.0704Q516.0625 278.28915 516.7969 277.36728Q517.5469 276.42978 518.9375 276.42978Q520.3281 276.42978 521.0625 277.35165Q521.8125 278.27353 521.8281 279.99228L521.8281 281.55478ZM520.125 279.83603Q520.125 278.77353 519.8281 278.28915Q519.5469 277.80478 518.9375 277.80478Q518.34375 277.80478 518.0469 278.27353Q517.7656 278.72665 517.75 279.71103L517.75 281.77353Q517.75 282.8204 518.03125 283.33603Q518.3125 283.83603 518.9531 283.83603Q519.5625 283.83603 519.84375 283.35165Q520.125 282.86728 520.125 281.86728L520.125 279.83603ZM528.9219 285.08603L523.0781 285.08603L523.0781 283.92978L525.84375 280.97665Q526.40625 280.36728 526.6719 279.89853Q526.9531 279.42978 526.9531 279.02353Q526.9531 278.4454 526.65625 278.1329Q526.375 277.80478 525.84375 277.80478Q525.2656 277.80478 524.9375 278.1954Q524.6094 278.58603 524.6094 279.24228L522.90625 279.24228Q522.90625 278.46103 523.28125 277.8204Q523.65625 277.16415 524.3281 276.80478Q525.0156 276.42978 525.875 276.42978Q527.1875 276.42978 527.9219 277.0704Q528.65625 277.6954 528.65625 278.85165Q528.65625 279.49228 528.3281 280.14853Q528.0 280.80478 527.2031 281.67978L525.2656 283.72665L528.9219 283.72665L528.9219 285.08603Z" fill-rule="nonzero"/><path fill="#000000" d="M499.1875 285.08603L497.5 285.08603L497.5 278.55478L495.48438 279.17978L495.48438 277.80478L499.01562 276.53915L499.1875 276.53915L499.1875 285.08603ZM506.1875 285.08603L504.5 285.08603L504.5 278.55478L502.48438 279.17978L502.48438 277.80478L506.01562 276.53915L506.1875 276.53915L506.1875 285.08603ZM514.9219 285.08603L509.07812 285.08603L509.07812 283.92978L511.84375 280.97665Q512.40625 280.36728 512.6719 279.89853Q512.9531 279.42978 512.9531 279.02353Q512.9531 278.4454 512.65625 278.1329Q512.375 277.80478 511.84375 277.80478Q511.26562 277.80478 510.9375 278.1954Q510.60938 278.58603 510.60938 279.24228L508.90625 279.24228Q508.90625 278.46103 509.28125 277.8204Q509.65625 277.16415 510.32812 276.80478Q511.01562 276.42978 511.875 276.42978Q513.1875 276.42978 513.9219 277.0704Q514.65625 277.6954 514.65625 278.85165Q514.65625 279.49228 514.3281 280.14853Q514.0 280.80478 513.2031 281.67978L511.26562 283.72665L514.9219 283.72665L514.9219 285.08603ZM521.8281 281.55478Q521.8281 283.3204 521.09375 284.27353Q520.3594 285.21103 518.9531 285.21103Q517.5469 285.21103 516.8125 284.28915Q516.0781 283.36728 516.0625 281.64853L516.0625 280.0704Q516.0625 278.28915 516.7969 277.36728Q517.5469 276.42978 518.9375 276.42978Q520.3281 276.42978 521.0625 277.35165Q521.8125 278.27353 521.8281 279.99228L521.8281 281.55478ZM520.125 279.83603Q520.125 278.77353 519.8281 278.28915Q519.5469 277.80478 518.9375 277.80478Q518.34375 277.80478 518.0469 278.27353Q517.7656 278.72665 517.75 279.71103L517.75 281.77353Q517.75 282.8204 518.03125 283.33603Q518.3125 283.83603 518.9531 283.83603Q519.5625 283.83603 519.84375 283.35165Q520.125 282.86728 520.125 281.86728L520.125 279.83603ZM528.9219 285.08603L523.0781 285.08603L523.0781 283.92978L525.84375 280.97665Q526.40625 280.36728 526.6719 279.89853Q526.9531 279.42978 526.9531 279.02353Q526.9531 278.4454 526.65625 278.1329Q526.375 277.80478 525.84375 277.80478Q525.2656 277.80478 524.9375 278.1954Q524.6094 278.58603 524.6094 279.24228L522.90625 279.24228Q522.90625 278.46103 523.28125 277.8204Q523.65625 277.16415 524.3281 276.80478Q525.0156 276.42978 525.875 276.42978Q527.1875 276.42978 527.9219 277.0704Q528.65625 277.6954 528.65625 278.85165Q528.65625 279.49228 528.3281 280.14853Q528.0 280.80478 527.2031 281.67978L525.2656 283.72665L528.9219 283.72665L528.9219 285.08603Z" fill-rule="nonzero"/><path fill="#000000" d="M27.096888 202.875L27.096888 204.89062L30.550013 204.89062L30.550013 206.01562L22.018763 206.01562L22.018763 203.1875Q22.018763 201.75 22.675013 200.98438Q23.331263 200.20312 24.581263 200.20312Q25.378138 200.20312 25.971888 200.64062Q26.565638 201.0625 26.862513 201.82812L30.471888 199.82812L30.550013 199.82812L30.550013 201.03125L27.096888 202.875ZM26.175013 204.89062L26.175013 203.15625Q26.175013 202.3125 25.753138 201.82812Q25.315638 201.32812 24.581263 201.32812Q23.800013 201.32812 23.378138 201.79688Q22.956263 202.26562 22.940638 203.15625L22.940638 204.89062L26.175013 204.89062ZM30.675013 196.54688Q30.675013 197.84375 29.831263 198.65625Q28.971888 199.45312 27.550013 199.45312L27.362513 199.45312Q26.409388 199.45312 25.675013 199.09375Q24.925013 198.73438 24.518763 198.09375Q24.096888 197.4375 24.096888 196.6875Q24.096888 195.45312 24.909388 194.76562Q25.721888 194.07812 27.237513 194.07812L27.690638 194.07812L27.690638 198.375Q28.628138 198.34375 29.206263 197.82812Q29.784388 197.29688 29.784388 196.48438Q29.784388 195.92188 29.550013 195.53125Q29.315638 195.125 28.925013 194.8125L29.440638 194.15625Q30.675013 194.95312 30.675013 196.54688ZM24.987513 196.6875Q24.987513 197.34375 25.471888 197.79688Q25.940638 198.23438 26.800013 198.32812L26.800013 195.15625L26.721888 195.15625Q25.893763 195.20312 25.440638 195.60938Q24.987513 196.0 24.987513 196.6875ZM27.331263 193.4375Q25.831263 193.4375 24.971888 192.76562Q24.096888 192.07812 24.096888 190.92188Q24.096888 189.79688 24.846888 189.14062L24.206263 189.09375L24.206263 188.09375L32.98751 188.09375L32.98751 189.1875L29.956263 189.1875Q30.675013 189.84375 30.675013 190.92188Q30.675013 192.07812 29.784388 192.76562Q28.878138 193.4375 27.409388 193.4375L27.331263 193.4375ZM27.456263 192.35938Q28.534388 192.35938 29.159388 191.90625Q29.784388 191.4375 29.784388 190.65625Q29.784388 189.6875 28.925013 189.1875L25.815638 189.1875Q24.987513 189.70312 24.987513 190.64062Q24.987513 191.4375 25.612513 191.90625Q26.237513 192.35938 27.456263 192.35938ZM31.284388 185.96875L31.284388 186.89062L22.018763 183.32812L22.018763 182.40625L31.284388 185.96875ZM28.862513 177.48438Q28.425013 177.48438 28.190638 177.82812Q27.940638 178.15625 27.768763 178.98438Q27.596888 179.79688 27.346888 180.28125Q27.096888 180.76562 26.768763 181.0Q26.425013 181.21875 25.956263 181.21875Q25.175013 181.21875 24.643763 180.5625Q24.096888 179.90625 24.096888 178.875Q24.096888 177.79688 24.659388 177.14062Q25.206263 176.46875 26.065638 176.46875L26.065638 177.54688Q25.628138 177.54688 25.315638 177.9375Q24.987513 178.3125 24.987513 178.875Q24.987513 179.46875 25.253138 179.8125Q25.503138 180.14062 25.909388 180.14062Q26.300013 180.14062 26.503138 179.82812Q26.706263 179.51562 26.893763 178.70312Q27.065638 177.89062 27.315638 177.39062Q27.565638 176.89062 27.925013 176.65625Q28.284388 176.40625 28.784388 176.40625Q29.643763 176.40625 30.159388 177.09375Q30.675013 177.76562 30.675013 178.84375Q30.675013 179.60938 30.409388 180.20312Q30.128138 180.78125 29.643763 181.10938Q29.159388 181.4375 28.596888 181.4375L28.596888 180.35938Q29.143763 180.32812 29.471888 179.92188Q29.784388 179.51562 29.784388 178.84375Q29.784388 178.23438 29.534388 177.85938Q29.284388 177.48438 28.862513 177.48438ZM30.675013 172.54688Q30.675013 173.84375 29.831263 174.65625Q28.971888 175.45312 27.550013 175.45312L27.362513 175.45312Q26.409388 175.45312 25.675013 175.09375Q24.925013 174.73438 24.518763 174.09375Q24.096888 173.4375 24.096888 172.6875Q24.096888 171.45312 24.909388 170.76562Q25.721888 170.07812 27.237513 170.07812L27.690638 170.07812L27.690638 174.375Q28.628138 174.34375 29.206263 173.82812Q29.784388 173.29688 29.784388 172.48438Q29.784388 171.92188 29.550013 171.53125Q29.315638 171.125 28.925013 170.8125L29.440638 170.15625Q30.675013 170.95312 30.675013 172.54688ZM24.987513 172.6875Q24.987513 173.34375 25.471888 173.79688Q25.940638 174.23438 26.800013 174.32812L26.800013 171.15625L26.721888 171.15625Q25.893763 171.20312 25.440638 171.60938Q24.987513 172.0 24.987513 172.6875ZM29.784388 166.64062Q29.784388 166.0625 29.440638 165.625Q29.081263 165.1875 28.550013 165.14062L28.550013 164.10938Q29.096888 164.14062 29.596888 164.5Q30.081263 164.84375 30.378138 165.42188Q30.675013 165.98438 30.675013 166.64062Q30.675013 167.9375 29.815638 168.70312Q28.940638 169.45312 27.440638 169.45312L27.253138 169.45312Q26.331263 169.45312 25.612513 169.125Q24.893763 168.78125 24.503138 168.15625Q24.096888 167.51562 24.096888 166.64062Q24.096888 165.57812 24.737513 164.875Q25.362513 164.15625 26.393763 164.10938L26.393763 165.14062Q25.768763 165.1875 25.378138 165.60938Q24.987513 166.03125 24.987513 166.64062Q24.987513 167.46875 25.581263 167.92188Q26.175013 168.375 27.300013 168.375L27.503138 168.375Q28.596888 168.375 29.190638 167.92188Q29.784388 167.46875 29.784388 166.64062Z" fill-rule="nonzero"/><path fill="#000000" d="M85.6125 306.3094Q85.6125 308.21564 84.95625 309.15314Q84.31563 310.075 82.925 310.075Q81.56563 310.075 80.90938 309.16876Q80.25313 308.2625 80.22188 306.45L80.22188 305.0125Q80.22188 303.1219 80.8625 302.21564Q81.51875 301.29376 82.90938 301.29376Q84.28438 301.29376 84.94063 302.1844Q85.59688 303.0594 85.6125 304.90314L85.6125 306.3094ZM84.51875 304.825Q84.51875 303.45 84.12813 302.825Q83.75313 302.1844 82.90938 302.1844Q82.08125 302.1844 81.69063 302.825Q81.31563 303.45 81.31563 304.7469L81.31563 306.48126Q81.31563 307.85626 81.70625 308.52814Q82.1125 309.1844 82.925 309.1844Q83.72188 309.1844 84.1125 308.5594Q84.50313 307.9344 84.51875 306.60626L84.51875 304.825Z" fill-rule="nonzero"/><path fill="#000000" d="M57.846874 216.81667L52.253124 216.81667L52.253124 216.03542L55.20625 212.75417Q55.8625 212.00417 56.1125 211.55104Q56.3625 211.08229 56.3625 210.58229Q56.3625 209.91042 55.95625 209.48854Q55.565624 209.05104 54.878124 209.05104Q54.08125 209.05104 53.628124 209.51979Q53.175 209.97292 53.175 210.80104L52.096874 210.80104Q52.096874 209.61354 52.846874 208.89479Q53.6125 208.16042 54.878124 208.16042Q56.08125 208.16042 56.76875 208.78542Q57.45625 209.41042 57.45625 210.45729Q57.45625 211.70729 55.846874 213.45729L53.565624 215.92604L57.846874 215.92604L57.846874 216.81667ZM64.6125 213.17604Q64.6125 215.08229 63.95625 216.01979Q63.315624 216.94167 61.925 216.94167Q60.565624 216.94167 59.909374 216.03542Q59.253124 215.12917 59.221874 213.31667L59.221874 211.87917Q59.221874 209.98854 59.8625 209.08229Q60.51875 208.16042 61.909374 208.16042Q63.284374 208.16042 63.940624 209.05104Q64.59688 209.92604 64.6125 211.76979L64.6125 213.17604ZM63.51875 211.69167Q63.51875 210.31667 63.128124 209.69167Q62.753124 209.05104 61.909374 209.05104Q61.08125 209.05104 60.690624 209.69167Q60.315624 210.31667 60.315624 211.61354L60.315624 213.34792Q60.315624 214.72292 60.70625 215.39479Q61.1125 216.05104 61.925 216.05104Q62.721874 216.05104 63.1125 215.42604Q63.503124 214.80104 63.51875 213.47292L63.51875 211.69167ZM71.6125 213.17604Q71.6125 215.08229 70.95625 216.01979Q70.31563 216.94167 68.925 216.94167Q67.56563 216.94167 66.90938 216.03542Q66.25313 215.12917 66.22188 213.31667L66.22188 211.87917Q66.22188 209.98854 66.8625 209.08229Q67.51875 208.16042 68.90938 208.16042Q70.28438 208.16042 70.94063 209.05104Q71.59688 209.92604 71.6125 211.76979L71.6125 213.17604ZM70.51875 211.69167Q70.51875 210.31667 70.12813 209.69167Q69.75313 209.05104 68.90938 209.05104Q68.08125 209.05104 67.69063 209.69167Q67.31563 210.31667 67.31563 211.61354L67.31563 213.34792Q67.31563 214.72292 67.70625 215.39479Q68.1125 216.05104 68.925 216.05104Q69.72188 216.05104 70.1125 215.42604Q70.50313 214.80104 70.51875 213.47292L70.51875 211.69167ZM78.6125 213.17604Q78.6125 215.08229 77.95625 216.01979Q77.31563 216.94167 75.925 216.94167Q74.56563 216.94167 73.90938 216.03542Q73.25313 215.12917 73.22188 213.31667L73.22188 211.87917Q73.22188 209.98854 73.8625 209.08229Q74.51875 208.16042 75.90938 208.16042Q77.28438 208.16042 77.94063 209.05104Q78.59688 209.92604 78.6125 211.76979L78.6125 213.17604ZM77.51875 211.69167Q77.51875 210.31667 77.12813 209.69167Q76.75313 209.05104 75.90938 209.05104Q75.08125 209.05104 74.69063 209.69167Q74.31563 210.31667 74.31563 211.61354L74.31563 213.34792Q74.31563 214.72292 74.70625 215.39479Q75.1125 216.05104 75.925 216.05104Q76.72188 216.05104 77.1125 215.42604Q77.50313 214.80104 77.51875 213.47292L77.51875 211.69167ZM85.6125 213.17604Q85.6125 215.08229 84.95625 216.01979Q84.31563 216.94167 82.925 216.94167Q81.56563 216.94167 80.90938 216.03542Q80.25313 215.12917 80.22188 213.31667L80.22188 211.87917Q80.22188 209.98854 80.8625 209.08229Q81.51875 208.16042 82.90938 208.16042Q84.28438 208.16042 84.94063 209.05104Q85.59688 209.92604 85.6125 211.76979L85.6125 213.17604ZM84.51875 211.69167Q84.51875 210.31667 84.12813 209.69167Q83.75313 209.05104 82.90938 209.05104Q82.08125 209.05104 81.69063 209.69167Q81.31563 210.31667 81.31563 211.61354L81.31563 213.34792Q81.31563 214.72292 81.70625 215.39479Q82.1125 216.05104 82.925 216.05104Q83.72188 216.05104 84.1125 215.42604Q84.50313 214.80104 84.51875 213.47292L84.51875 211.69167Z" fill-rule="nonzero"/><path fill="#000000" d="M56.83125 120.82396L58.01875 120.82396L58.01875 121.69896L56.83125 121.69896L56.83125 123.683334L55.753124 123.683334L55.753124 121.69896L51.8625 121.69896L51.8625 121.058334L55.675 115.152084L56.83125 115.152084L56.83125 120.82396ZM53.096874 120.82396L55.753124 120.82396L55.753124 116.63646L55.6125 116.870834L53.096874 120.82396ZM64.6125 120.04271Q64.6125 121.94896 63.95625 122.88646Q63.315624 123.808334 61.925 123.808334Q60.565624 123.808334 59.909374 122.902084Q59.253124 121.995834 59.221874 120.183334L59.221874 118.745834Q59.221874 116.85521 59.8625 115.94896Q60.51875 115.027084 61.909374 115.027084Q63.284374 115.027084 63.940624 115.91771Q64.59688 116.79271 64.6125 118.63646L64.6125 120.04271ZM63.51875 118.558334Q63.51875 117.183334 63.128124 116.558334Q62.753124 115.91771 61.909374 115.91771Q61.08125 115.91771 60.690624 116.558334Q60.315624 117.183334 60.315624 118.48021L60.315624 120.214584Q60.315624 121.589584 60.70625 122.26146Q61.1125 122.91771 61.925 122.91771Q62.721874 122.91771 63.1125 122.29271Q63.503124 121.66771 63.51875 120.339584L63.51875 118.558334ZM71.6125 120.04271Q71.6125 121.94896 70.95625 122.88646Q70.31563 123.808334 68.925 123.808334Q67.56563 123.808334 66.90938 122.902084Q66.25313 121.995834 66.22188 120.183334L66.22188 118.745834Q66.22188 116.85521 66.8625 115.94896Q67.51875 115.027084 68.90938 115.027084Q70.28438 115.027084 70.94063 115.91771Q71.59688 116.79271 71.6125 118.63646L71.6125 120.04271ZM70.51875 118.558334Q70.51875 117.183334 70.12813 116.558334Q69.75313 115.91771 68.90938 115.91771Q68.08125 115.91771 67.69063 116.558334Q67.31563 117.183334 67.31563 118.48021L67.31563 120.214584Q67.31563 121.589584 67.70625 122.26146Q68.1125 122.91771 68.925 122.91771Q69.72188 122.91771 70.1125 122.29271Q70.50313 121.66771 70.51875 120.339584L70.51875 118.558334ZM78.6125 120.04271Q78.6125 121.94896 77.95625 122.88646Q77.31563 123.808334 75.925 123.808334Q74.56563 123.808334 73.90938 122.902084Q73.25313 121.995834 73.22188 120.183334L73.22188 118.745834Q73.22188 116.85521 73.8625 115.94896Q74.51875 115.027084 75.90938 115.027084Q77.28438 115.027084 77.94063 115.91771Q78.59688 116.79271 78.6125 118.63646L78.6125 120.04271ZM77.51875 118.558334Q77.51875 117.183334 77.12813 116.558334Q76.75313 115.91771 75.90938 115.91771Q75.08125 115.91771 74.69063 116.558334Q74.31563 117.183334 74.31563 118.48021L74.31563 120.214584Q74.31563 121.589584 74.70625 122.26146Q75.1125 122.91771 75.925 122.91771Q76.72188 122.91771 77.1125 122.29271Q77.50313 121.66771 77.51875 120.339584L77.51875 118.558334ZM85.6125 120.04271Q85.6125 121.94896 84.95625 122.88646Q84.31563 123.808334 82.925 123.808334Q81.56563 123.808334 80.90938 122.902084Q80.25313 121.995834 80.22188 120.183334L80.22188 118.745834Q80.22188 116.85521 80.8625 115.94896Q81.51875 115.027084 82.90938 115.027084Q84.28438 115.027084 84.94063 115.91771Q85.59688 116.79271 85.6125 118.63646L85.6125 120.04271ZM84.51875 118.558334Q84.51875 117.183334 84.12813 116.558334Q83.75313 115.91771 82.90938 115.91771Q82.08125 115.91771 81.69063 116.558334Q81.31563 117.183334 81.31563 118.48021L81.31563 120.214584Q81.31563 121.589584 81.70625 122.26146Q82.1125 122.91771 82.925 122.91771Q83.72188 122.91771 84.1125 122.29271Q84.50313 121.66771 84.51875 120.339584L84.51875 118.558334Z" fill-rule="nonzero"/><path fill="#000000" d="M56.51875 22.01875L56.51875 22.925L56.315624 22.925Q55.05 22.95625 54.3 23.690624Q53.55 24.409374 53.425 25.721874Q54.1125 24.95625 55.26875 24.95625Q56.378124 24.95625 57.05 25.7375Q57.721874 26.51875 57.721874 27.76875Q57.721874 29.08125 57.003124 29.878124Q56.284374 30.675 55.065624 30.675Q53.846874 30.675 53.08125 29.7375Q52.33125 28.784374 52.33125 27.3L52.33125 26.89375Q52.33125 24.534374 53.33125 23.284374Q54.33125 22.034374 56.315624 22.01875L56.51875 22.01875ZM55.096874 25.8625Q54.534374 25.8625 54.065624 26.190624Q53.596874 26.51875 53.409374 27.034374L53.409374 27.425Q53.409374 28.4875 53.878124 29.128124Q54.3625 29.76875 55.065624 29.76875Q55.8 29.76875 56.221874 29.2375Q56.64375 28.690624 56.64375 27.815624Q56.64375 26.940624 56.221874 26.409374Q55.8 25.8625 55.096874 25.8625ZM64.6125 26.909374Q64.6125 28.815624 63.95625 29.753124Q63.315624 30.675 61.925 30.675Q60.565624 30.675 59.909374 29.76875Q59.253124 28.8625 59.221874 27.05L59.221874 25.6125Q59.221874 23.721874 59.8625 22.815624Q60.51875 21.89375 61.909374 21.89375Q63.284374 21.89375 63.940624 22.784374Q64.59688 23.659374 64.6125 25.503124L64.6125 26.909374ZM63.51875 25.425Q63.51875 24.05 63.128124 23.425Q62.753124 22.784374 61.909374 22.784374Q61.08125 22.784374 60.690624 23.425Q60.315624 24.05 60.315624 25.346874L60.315624 27.08125Q60.315624 28.45625 60.70625 29.128124Q61.1125 29.784374 61.925 29.784374Q62.721874 29.784374 63.1125 29.159374Q63.503124 28.534374 63.51875 27.20625L63.51875 25.425ZM71.6125 26.909374Q71.6125 28.815624 70.95625 29.753124Q70.31563 30.675 68.925 30.675Q67.56563 30.675 66.90938 29.76875Q66.25313 28.8625 66.22188 27.05L66.22188 25.6125Q66.22188 23.721874 66.8625 22.815624Q67.51875 21.89375 68.90938 21.89375Q70.28438 21.89375 70.94063 22.784374Q71.59688 23.659374 71.6125 25.503124L71.6125 26.909374ZM70.51875 25.425Q70.51875 24.05 70.12813 23.425Q69.75313 22.784374 68.90938 22.784374Q68.08125 22.784374 67.69063 23.425Q67.31563 24.05 67.31563 25.346874L67.31563 27.08125Q67.31563 28.45625 67.70625 29.128124Q68.1125 29.784374 68.925 29.784374Q69.72188 29.784374 70.1125 29.159374Q70.50313 28.534374 70.51875 27.20625L70.51875 25.425ZM78.6125 26.909374Q78.6125 28.815624 77.95625 29.753124Q77.31563 30.675 75.925 30.675Q74.56563 30.675 73.90938 29.76875Q73.25313 28.8625 73.22188 27.05L73.22188 25.6125Q73.22188 23.721874 73.8625 22.815624Q74.51875 21.89375 75.90938 21.89375Q77.28438 21.89375 77.94063 22.784374Q78.59688 23.659374 78.6125 25.503124L78.6125 26.909374ZM77.51875 25.425Q77.51875 24.05 77.12813 23.425Q76.75313 22.784374 75.90938 22.784374Q75.08125 22.784374 74.69063 23.425Q74.31563 24.05 74.31563 25.346874L74.31563 27.08125Q74.31563 28.45625 74.70625 29.128124Q75.1125 29.784374 75.925 29.784374Q76.72188 29.784374 77.1125 29.159374Q77.50313 28.534374 77.51875 27.20625L77.51875 25.425ZM85.6125 26.909374Q85.6125 28.815624 84.95625 29.753124Q84.31563 30.675 82.925 30.675Q81.56563 30.675 80.90938 29.76875Q80.25313 28.8625 80.22188 27.05L80.22188 25.6125Q80.22188 23.721874 80.8625 22.815624Q81.51875 21.89375 82.90938 21.89375Q84.28438 21.89375 84.94063 22.784374Q85.59688 23.659374 85.6125 25.503124L85.6125 26.909374ZM84.51875 25.425Q84.51875 24.05 84.12813 23.425Q83.75313 22.784374 82.90938 22.784374Q82.08125 22.784374 81.69063 23.425Q81.31563 24.05 81.31563 25.346874L81.31563 27.08125Q81.31563 28.45625 81.70625 29.128124Q82.1125 29.784374 82.925 29.784374Q83.72188 29.784374 84.1125 29.159374Q84.50313 28.534374 84.51875 27.20625L84.51875 25.425Z" fill-rule="nonzero"/><path fill="#000000" d="M138.8899 345.48126L137.84302 346.5594L137.84302 349.45L136.71802 349.45L136.71802 340.91876L137.84302 340.91876L137.84302 345.1375L141.6399 340.91876L142.99927 340.91876L139.6399 344.6844L143.2649 349.45L141.92114 349.45L138.8899 345.48126ZM144.2649 346.21564Q144.2649 345.29376 144.62427 344.54376Q144.99927 343.79376 145.65552 343.40314Q146.31177 342.9969 147.1399 342.9969Q148.43677 342.9969 149.23364 343.8875Q150.04614 344.77814 150.04614 346.27814L150.04614 346.35626Q150.04614 347.27814 149.68677 348.0125Q149.3274 348.7469 148.67114 349.16876Q148.0149 349.575 147.15552 349.575Q145.87427 349.575 145.06177 348.6844Q144.2649 347.77814 144.2649 346.29376L144.2649 346.21564ZM145.35864 346.35626Q145.35864 347.40314 145.84302 348.04376Q146.34302 348.6844 147.15552 348.6844Q147.98364 348.6844 148.46802 348.04376Q148.9524 347.3875 148.9524 346.21564Q148.9524 345.1844 148.4524 344.54376Q147.96802 343.8875 147.1399 343.8875Q146.34302 343.8875 145.84302 344.52814Q145.35864 345.15314 145.35864 346.35626ZM155.46802 349.45Q155.37427 349.2625 155.31177 348.77814Q154.56177 349.575 153.5149 349.575Q152.5774 349.575 151.96802 349.04376Q151.37427 348.5125 151.37427 347.6844Q151.37427 346.7 152.12427 346.15314Q152.87427 345.60626 154.24927 345.60626L155.29614 345.60626L155.29614 345.10626Q155.29614 344.54376 154.9524 344.21564Q154.62427 343.8719 153.9524 343.8719Q153.37427 343.8719 152.98364 344.16876Q152.59302 344.45 152.59302 344.8719L151.49927 344.8719Q151.49927 344.3875 151.8274 343.95Q152.17114 343.5125 152.74927 343.2625Q153.3274 342.9969 154.0149 342.9969Q155.12427 342.9969 155.73364 343.54376Q156.35864 344.09064 156.3899 345.04376L156.3899 347.96564Q156.3899 348.84064 156.60864 349.35626L156.60864 349.45L155.46802 349.45ZM153.67114 348.6219Q154.18677 348.6219 154.6399 348.35626Q155.09302 348.09064 155.29614 347.66876L155.29614 346.3719L154.4524 346.3719Q152.4524 346.3719 152.4524 347.54376Q152.4524 348.04376 152.79614 348.34064Q153.1399 348.6219 153.67114 348.6219Z" fill-rule="nonzero"/><path fill="#000000" d="M225.31995 345.6844L221.7262 345.6844L221.7262 349.45L220.6012 349.45L220.6012 340.91876L225.89807 340.91876L225.89807 341.84064L221.7262 341.84064L221.7262 344.7625L225.31995 344.7625L225.31995 345.6844ZM231.3512 349.45Q231.25745 349.2625 231.19495 348.77814Q230.44495 349.575 229.39807 349.575Q228.46057 349.575 227.8512 349.04376Q227.25745 348.5125 227.25745 347.6844Q227.25745 346.7 228.00745 346.15314Q228.75745 345.60626 230.13245 345.60626L231.17932 345.60626L231.17932 345.10626Q231.17932 344.54376 230.83557 344.21564Q230.50745 343.8719 229.83557 343.8719Q229.25745 343.8719 228.86682 344.16876Q228.4762 344.45 228.4762 344.8719L227.38245 344.8719Q227.38245 344.3875 227.71057 343.95Q228.05432 343.5125 228.63245 343.2625Q229.21057 342.9969 229.89807 342.9969Q231.00745 342.9969 231.61682 343.54376Q232.24182 344.09064 232.27307 345.04376L232.27307 347.96564Q232.27307 348.84064 232.49182 349.35626L232.49182 349.45L231.3512 349.45ZM229.55432 348.6219Q230.06995 348.6219 230.52307 348.35626Q230.9762 348.09064 231.17932 347.66876L231.17932 346.3719L230.33557 346.3719Q228.33557 346.3719 228.33557 347.54376Q228.33557 348.04376 228.67932 348.34064Q229.02307 348.6219 229.55432 348.6219ZM238.13245 347.7625Q238.13245 347.325 237.7887 347.09064Q237.46057 346.84064 236.63245 346.66876Q235.81995 346.4969 235.33557 346.2469Q234.8512 345.9969 234.61682 345.66876Q234.39807 345.325 234.39807 344.85626Q234.39807 344.075 235.05432 343.54376Q235.71057 342.9969 236.74182 342.9969Q237.81995 342.9969 238.4762 343.5594Q239.14807 344.10626 239.14807 344.96564L238.06995 344.96564Q238.06995 344.52814 237.67932 344.21564Q237.30432 343.8875 236.74182 343.8875Q236.14807 343.8875 235.80432 344.15314Q235.4762 344.40314 235.4762 344.8094Q235.4762 345.2 235.7887 345.40314Q236.1012 345.60626 236.9137 345.79376Q237.7262 345.96564 238.2262 346.21564Q238.7262 346.46564 238.96057 346.825Q239.21057 347.1844 239.21057 347.6844Q239.21057 348.54376 238.52307 349.0594Q237.8512 349.575 236.77307 349.575Q236.00745 349.575 235.4137 349.3094Q234.83557 349.02814 234.50745 348.54376Q234.17932 348.0594 234.17932 347.4969L235.25745 347.4969Q235.2887 348.04376 235.69495 348.3719Q236.1012 348.6844 236.77307 348.6844Q237.38245 348.6844 237.75745 348.4344Q238.13245 348.1844 238.13245 347.7625ZM241.9137 341.575L241.9137 343.10626L243.08557 343.10626L243.08557 343.95L241.9137 343.95L241.9137 347.8719Q241.9137 348.2625 242.06995 348.45Q242.2262 348.6375 242.6012 348.6375Q242.7887 348.6375 243.11682 348.575L243.11682 349.45Q242.69495 349.575 242.2887 349.575Q241.56995 349.575 241.19495 349.1375Q240.81995 348.6844 240.81995 347.8719L240.81995 343.95L239.6637 343.95L239.6637 343.10626L240.81995 343.10626L240.81995 341.575L241.9137 341.575ZM245.61682 349.45L244.5387 349.45L244.5387 343.10626L245.61682 343.10626L245.61682 349.45ZM244.44495 341.4344Q244.44495 341.16876 244.6012 340.98126Q244.77307 340.79376 245.08557 340.79376Q245.39807 340.79376 245.55432 340.98126Q245.7262 341.16876 245.7262 341.4344Q245.7262 341.6844 245.55432 341.8719Q245.39807 342.04376 245.08557 342.04376Q244.77307 342.04376 244.6012 341.8719Q244.44495 341.6844 244.44495 341.4344ZM247.9762 349.45L247.9762 343.95L246.9762 343.95L246.9762 343.10626L247.9762 343.10626L247.9762 342.46564Q247.9762 341.4344 248.50745 340.8875Q249.05432 340.325 250.05432 340.325Q250.42932 340.325 250.80432 340.41876L250.74182 341.3094Q250.46057 341.2469 250.1637 341.2469Q249.63245 341.2469 249.33557 341.5594Q249.05432 341.8719 249.05432 342.4344L249.05432 343.10626L250.4137 343.10626L250.4137 343.95L249.05432 343.95L249.05432 349.45L247.9762 349.45ZM253.50745 347.85626L254.99182 343.10626L256.14807 343.10626L253.6012 350.4344Q253.00745 352.0125 251.7262 352.0125L251.50745 351.9969L251.11682 351.91876L251.11682 351.04376L251.39807 351.0594Q251.96057 351.0594 252.25745 350.84064Q252.56995 350.6219 252.77307 350.02814L253.00745 349.3719L250.74182 343.10626L251.92932 343.10626L253.50745 347.85626Z" fill-rule="nonzero"/><path fill="#000000" d="M315.625 345.9969L313.60938 345.9969L313.60938 349.45L312.48438 349.45L312.48438 340.91876L315.3125 340.91876Q316.75 340.91876 317.51562 341.575Q318.29688 342.23126 318.29688 343.48126Q318.29688 344.27814 317.85938 344.8719Q317.4375 345.46564 316.67188 345.7625L318.67188 349.3719L318.67188 349.45L317.46875 349.45L315.625 345.9969ZM313.60938 345.075L315.34375 345.075Q316.1875 345.075 316.67188 344.65314Q317.17188 344.21564 317.17188 343.48126Q317.17188 342.7 316.70312 342.27814Q316.23438 341.85626 315.34375 341.84064L313.60938 341.84064L313.60938 345.075ZM321.95312 349.575Q320.65625 349.575 319.84375 348.73126Q319.04688 347.8719 319.04688 346.45L319.04688 346.2625Q319.04688 345.3094 319.40625 344.575Q319.76562 343.825 320.40625 343.41876Q321.0625 342.9969 321.8125 342.9969Q323.04688 342.9969 323.73438 343.8094Q324.42188 344.6219 324.42188 346.1375L324.42188 346.59064L320.125 346.59064Q320.15625 347.52814 320.67188 348.10626Q321.20312 348.6844 322.01562 348.6844Q322.57812 348.6844 322.96875 348.45Q323.375 348.21564 323.6875 347.825L324.34375 348.34064Q323.54688 349.575 321.95312 349.575ZM321.8125 343.8875Q321.15625 343.8875 320.70312 344.3719Q320.26562 344.84064 320.17188 345.7L323.34375 345.7L323.34375 345.6219Q323.29688 344.79376 322.89062 344.34064Q322.5 343.8875 321.8125 343.8875ZM329.01562 347.7625Q329.01562 347.325 328.67188 347.09064Q328.34375 346.84064 327.51562 346.66876Q326.70312 346.4969 326.21875 346.2469Q325.73438 345.9969 325.5 345.66876Q325.28125 345.325 325.28125 344.85626Q325.28125 344.075 325.9375 343.54376Q326.59375 342.9969 327.625 342.9969Q328.70312 342.9969 329.35938 343.5594Q330.03125 344.10626 330.03125 344.96564L328.95312 344.96564Q328.95312 344.52814 328.5625 344.21564Q328.1875 343.8875 327.625 343.8875Q327.03125 343.8875 326.6875 344.15314Q326.35938 344.40314 326.35938 344.8094Q326.35938 345.2 326.67188 345.40314Q326.98438 345.60626 327.79688 345.79376Q328.60938 345.96564 329.10938 346.21564Q329.60938 346.46564 329.84375 346.825Q330.09375 347.1844 330.09375 347.6844Q330.09375 348.54376 329.40625 349.0594Q328.73438 349.575 327.65625 349.575Q326.89062 349.575 326.29688 349.3094Q325.71875 349.02814 325.39062 348.54376Q325.0625 348.0594 325.0625 347.4969L326.14062 347.4969Q326.17188 348.04376 326.57812 348.3719Q326.98438 348.6844 327.65625 348.6844Q328.26562 348.6844 328.64062 348.4344Q329.01562 348.1844 329.01562 347.7625ZM332.79688 341.575L332.79688 343.10626L333.96875 343.10626L333.96875 343.95L332.79688 343.95L332.79688 347.8719Q332.79688 348.2625 332.95312 348.45Q333.10938 348.6375 333.48438 348.6375Q333.67188 348.6375 334.0 348.575L334.0 349.45Q333.57812 349.575 333.17188 349.575Q332.45312 349.575 332.07812 349.1375Q331.70312 348.6844 331.70312 347.8719L331.70312 343.95L330.54688 343.95L330.54688 343.10626L331.70312 343.10626L331.70312 341.575L332.79688 341.575ZM336.5 349.45L335.42188 349.45L335.42188 343.10626L336.5 343.10626L336.5 349.45ZM335.32812 341.4344Q335.32812 341.16876 335.48438 340.98126Q335.65625 340.79376 335.96875 340.79376Q336.28125 340.79376 336.4375 340.98126Q336.60938 341.16876 336.60938 341.4344Q336.60938 341.6844 336.4375 341.8719Q336.28125 342.04376 335.96875 342.04376Q335.65625 342.04376 335.48438 341.8719Q335.32812 341.6844 335.32812 341.4344ZM338.85938 349.45L338.85938 343.95L337.85938 343.95L337.85938 343.10626L338.85938 343.10626L338.85938 342.46564Q338.85938 341.4344 339.39062 340.8875Q339.9375 340.325 340.9375 340.325Q341.3125 340.325 341.6875 340.41876L341.625 341.3094Q341.34375 341.2469 341.04688 341.2469Q340.51562 341.2469 340.21875 341.5594Q339.9375 341.8719 339.9375 342.4344L339.9375 343.10626L341.29688 343.10626L341.29688 343.95L339.9375 343.95L339.9375 349.45L338.85938 349.45ZM344.39062 347.85626L345.875 343.10626L347.03125 343.10626L344.48438 350.4344Q343.89062 352.0125 342.60938 352.0125L342.39062 351.9969L342.0 351.91876L342.0 351.04376L342.28125 351.0594Q342.84375 351.0594 343.14062 350.84064Q343.45312 350.6219 343.65625 350.02814L343.89062 349.3719L341.625 343.10626L342.8125 343.10626L344.39062 347.85626Z" fill-rule="nonzero"/><path fill="#000000" d="M415.43005 349.45L414.30505 349.45L414.30505 345.5125L409.99255 345.5125L409.99255 349.45L408.86755 349.45L408.86755 340.91876L409.99255 340.91876L409.99255 344.59064L414.30505 344.59064L414.30505 340.91876L415.43005 340.91876L415.43005 349.45ZM421.61755 349.45Q421.5238 349.2625 421.4613 348.77814Q420.7113 349.575 419.66443 349.575Q418.72693 349.575 418.11755 349.04376Q417.5238 348.5125 417.5238 347.6844Q417.5238 346.7 418.2738 346.15314Q419.0238 345.60626 420.3988 345.60626L421.44568 345.60626L421.44568 345.10626Q421.44568 344.54376 421.10193 344.21564Q420.7738 343.8719 420.10193 343.8719Q419.5238 343.8719 419.13318 344.16876Q418.74255 344.45 418.74255 344.8719L417.6488 344.8719Q417.6488 344.3875 417.97693 343.95Q418.32068 343.5125 418.8988 343.2625Q419.47693 342.9969 420.16443 342.9969Q421.2738 342.9969 421.88318 343.54376Q422.50818 344.09064 422.53943 345.04376L422.53943 347.96564Q422.53943 348.84064 422.75818 349.35626L422.75818 349.45L421.61755 349.45ZM419.82068 348.6219Q420.3363 348.6219 420.78943 348.35626Q421.24255 348.09064 421.44568 347.66876L421.44568 346.3719L420.60193 346.3719Q418.60193 346.3719 418.60193 347.54376Q418.60193 348.04376 418.94568 348.34064Q419.28943 348.6219 419.82068 348.6219ZM430.05505 346.35626Q430.05505 347.79376 429.3988 348.6844Q428.74255 349.575 427.60193 349.575Q426.44568 349.575 425.78943 348.84064L425.78943 351.8875L424.7113 351.8875L424.7113 343.10626L425.69568 343.10626L425.74255 343.8094Q426.41443 342.9969 427.5863 342.9969Q428.72693 342.9969 429.38318 343.85626Q430.05505 344.71564 430.05505 346.2469L430.05505 346.35626ZM428.97693 346.23126Q428.97693 345.15314 428.50818 344.54376Q428.05505 343.91876 427.25818 343.91876Q426.2738 343.91876 425.78943 344.77814L425.78943 347.8094Q426.2738 348.6844 427.2738 348.6844Q428.05505 348.6844 428.50818 348.075Q428.97693 347.45 428.97693 346.23126ZM432.88318 349.45L431.80505 349.45L431.80505 343.10626L432.88318 343.10626L432.88318 349.45ZM431.7113 341.4344Q431.7113 341.16876 431.86755 340.98126Q432.03943 340.79376 432.35193 340.79376Q432.66443 340.79376 432.82068 340.98126Q432.99255 341.16876 432.99255 341.4344Q432.99255 341.6844 432.82068 341.8719Q432.66443 342.04376 432.35193 342.04376Q432.03943 342.04376 431.86755 341.8719Q431.7113 341.6844 431.7113 341.4344Z" fill-rule="nonzero"/><path fill="#000000" d="M497.07886 345.5125L493.37573 345.5125L493.37573 348.52814L497.6726 348.52814L497.6726 349.45L492.25073 349.45L492.25073 340.91876L497.62573 340.91876L497.62573 341.84064L493.37573 341.84064L493.37573 344.59064L497.07886 344.59064L497.07886 345.5125ZM501.21948 345.41876L502.62573 343.10626L503.89136 343.10626L501.81323 346.2469L503.95386 349.45L502.70386 349.45L501.2351 347.075L499.76636 349.45L498.50073 349.45L500.64136 346.2469L498.57886 343.10626L499.82886 343.10626L501.21948 345.41876ZM510.43823 346.35626Q510.43823 347.79376 509.78198 348.6844Q509.12573 349.575 507.9851 349.575Q506.82886 349.575 506.1726 348.84064L506.1726 351.8875L505.09448 351.8875L505.09448 343.10626L506.07886 343.10626L506.12573 343.8094Q506.7976 342.9969 507.96948 342.9969Q509.1101 342.9969 509.76636 343.85626Q510.43823 344.71564 510.43823 346.2469L510.43823 346.35626ZM509.3601 346.23126Q509.3601 345.15314 508.89136 344.54376Q508.43823 343.91876 507.64136 343.91876Q506.65698 343.91876 506.1726 344.77814L506.1726 347.8094Q506.65698 348.6844 507.65698 348.6844Q508.43823 348.6844 508.89136 348.075Q509.3601 347.45 509.3601 346.23126ZM515.157 344.075Q514.907 344.04376 514.62573 344.04376Q513.5476 344.04376 513.1726 344.95L513.1726 349.45L512.0945 349.45L512.0945 343.10626L513.14136 343.10626L513.157 343.84064Q513.68823 342.9969 514.6726 342.9969Q514.9851 342.9969 515.157 343.075L515.157 344.075ZM518.7195 349.575Q517.4226 349.575 516.6101 348.73126Q515.81323 347.8719 515.81323 346.45L515.81323 346.2625Q515.81323 345.3094 516.1726 344.575Q516.532 343.825 517.1726 343.41876Q517.82886 342.9969 518.57886 342.9969Q519.81323 342.9969 520.50073 343.8094Q521.18823 344.6219 521.18823 346.1375L521.18823 346.59064L516.89136 346.59064Q516.9226 347.52814 517.43823 348.10626Q517.9695 348.6844 518.782 348.6844Q519.3445 348.6844 519.7351 348.45Q520.14136 348.21564 520.45386 347.825L521.1101 348.34064Q520.31323 349.575 518.7195 349.575ZM518.57886 343.8875Q517.9226 343.8875 517.4695 344.3719Q517.032 344.84064 516.93823 345.7L520.1101 345.7L520.1101 345.6219Q520.06323 344.79376 519.657 344.34064Q519.26636 343.8875 518.57886 343.8875ZM525.782 347.7625Q525.782 347.325 525.43823 347.09064Q525.1101 346.84064 524.282 346.66876Q523.4695 346.4969 522.9851 346.2469Q522.50073 345.9969 522.26636 345.66876Q522.0476 345.325 522.0476 344.85626Q522.0476 344.075 522.70386 343.54376Q523.3601 342.9969 524.39136 342.9969Q525.4695 342.9969 526.12573 343.5594Q526.7976 344.10626 526.7976 344.96564L525.7195 344.96564Q525.7195 344.52814 525.32886 344.21564Q524.95386 343.8875 524.39136 343.8875Q523.7976 343.8875 523.45386 344.15314Q523.12573 344.40314 523.12573 344.8094Q523.12573 345.2 523.43823 345.40314Q523.75073 345.60626 524.56323 345.79376Q525.37573 345.96564 525.87573 346.21564Q526.37573 346.46564 526.6101 346.825Q526.8601 347.1844 526.8601 347.6844Q526.8601 348.54376 526.1726 349.0594Q525.50073 349.575 524.4226 349.575Q523.657 349.575 523.06323 349.3094Q522.4851 349.02814 522.157 348.54376Q521.82886 348.0594 521.82886 347.4969L522.907 347.4969Q522.93823 348.04376 523.3445 348.3719Q523.75073 348.6844 524.4226 348.6844Q525.032 348.6844 525.407 348.4344Q525.782 348.1844 525.782 347.7625ZM531.782 347.7625Q531.782 347.325 531.43823 347.09064Q531.1101 346.84064 530.282 346.66876Q529.4695 346.4969 528.9851 346.2469Q528.50073 345.9969 528.26636 345.66876Q528.0476 345.325 528.0476 344.85626Q528.0476 344.075 528.70386 343.54376Q529.3601 342.9969 530.39136 342.9969Q531.4695 342.9969 532.12573 343.5594Q532.7976 344.10626 532.7976 344.96564L531.7195 344.96564Q531.7195 344.52814 531.32886 344.21564Q530.95386 343.8875 530.39136 343.8875Q529.7976 343.8875 529.45386 344.15314Q529.12573 344.40314 529.12573 344.8094Q529.12573 345.2 529.43823 345.40314Q529.75073 345.60626 530.56323 345.79376Q531.37573 345.96564 531.87573 346.21564Q532.37573 346.46564 532.6101 346.825Q532.8601 347.1844 532.8601 347.6844Q532.8601 348.54376 532.1726 349.0594Q531.50073 349.575 530.4226 349.575Q529.657 349.575 529.06323 349.3094Q528.4851 349.02814 528.157 348.54376Q527.82886 348.0594 527.82886 347.4969L528.907 347.4969Q528.93823 348.04376 529.3445 348.3719Q529.75073 348.6844 530.4226 348.6844Q531.032 348.6844 531.407 348.4344Q531.782 348.1844 531.782 347.7625Z" fill-rule="nonzero"/></svg>